<svg id="viloes" width="25" height="24" viewBox="0 0 25 24" fill="none" xmlns="http://www.w3.org/2000/svg">
<path d="M6.80005 22V17.75C6.15005 17.4667 5.57938 17.0877 5.08805 16.613C4.59605 16.1377 4.17938 15.6 3.83805 15C3.49605 14.4 3.23772 13.7583 3.06305 13.075C2.88772 12.3917 2.80005 11.7 2.80005 11C2.80005 8.36667 3.73338 6.20833 5.60005 4.525C7.46672 2.84167 9.86672 2 12.8 2C15.7334 2 18.1334 2.84167 20 4.525C21.8667 6.20833 22.8 8.36667 22.8 11C22.8 11.7 22.7127 12.3917 22.538 13.075C22.3627 13.7583 22.1044 14.4 21.763 15C21.421 15.6 21.0044 16.1377 20.513 16.613C20.021 17.0877 19.45 17.4667 18.8 17.75V22H6.80005ZM8.80005 20H9.80005V22H11.8V20H13.8V22H15.8V20H16.8V16.45C17.4334 16.3 17.996 16.05 18.488 15.7C18.9794 15.35 19.396 14.9333 19.738 14.45C20.0794 13.9667 20.3417 13.4333 20.525 12.85C20.7084 12.2667 20.8 11.65 20.8 11C20.8 8.91667 20.0627 7.22933 18.588 5.938C17.1127 4.646 15.1834 4 12.8 4C10.4167 4 8.48772 4.646 7.01305 5.938C5.53772 7.22933 4.80005 8.91667 4.80005 11C4.80005 11.65 4.89172 12.2667 5.07505 12.85C5.25838 13.4333 5.52072 13.9667 5.86205 14.45C6.20405 14.9333 6.62505 15.35 7.12505 15.7C7.62505 16.05 8.18338 16.3 8.80005 16.45V20ZM11.3 15.75H14.3L12.8 12.75L11.3 15.75ZM9.30005 13C9.85005 13 10.321 12.804 10.713 12.412C11.1044 12.0207 11.3 11.55 11.3 11C11.3 10.45 11.1044 9.979 10.713 9.587C10.321 9.19567 9.85005 9 9.30005 9C8.75005 9 8.27938 9.19567 7.88805 9.587C7.49605 9.979 7.30005 10.45 7.30005 11C7.30005 11.55 7.49605 12.0207 7.88805 12.412C8.27938 12.804 8.75005 13 9.30005 13ZM16.3 13C16.85 13 17.321 12.804 17.713 12.412C18.1044 12.0207 18.3 11.55 18.3 11C18.3 10.45 18.1044 9.979 17.713 9.587C17.321 9.19567 16.85 9 16.3 9C15.75 9 15.2794 9.19567 14.888 9.587C14.496 9.979 14.3 10.45 14.3 11C14.3 11.55 14.496 12.0207 14.888 12.412C15.2794 12.804 15.75 13 16.3 13ZM8.80005 20V16.45C8.18338 16.3 7.62505 16.05 7.12505 15.7C6.62505 15.35 6.20405 14.9333 5.86205 14.45C5.52072 13.9667 5.25838 13.4333 5.07505 12.85C4.89172 12.2667 4.80005 11.65 4.80005 11C4.80005 8.91667 5.53772 7.22933 7.01305 5.938C8.48772 4.646 10.4167 4 12.8 4C15.1834 4 17.1127 4.646 18.588 5.938C20.0627 7.22933 20.8 8.91667 20.8 11C20.8 11.65 20.7084 12.2667 20.525 12.85C20.3417 13.4333 20.0794 13.9667 19.738 14.45C19.396 14.9333 18.9794 15.35 18.488 15.7C17.996 16.05 17.4334 16.3 16.8 16.45V20H9.80005H8.80005Z" fill="#E5A41E"/>
</svg>
