<svg id="personagens" width="25" height="24" viewBox="0 0 25 24" fill="none" xmlns="http://www.w3.org/2000/svg">
<g clip-path="url(#clip0_105_110)">
<path d="M12.4 5.5C13.3283 5.5 14.2185 5.86875 14.8749 6.52513C15.5313 7.1815 15.9 8.07174 15.9 9C15.9 9.92826 15.5313 10.8185 14.8749 11.4749C14.2185 12.1313 13.3283 12.5 12.4 12.5C11.4718 12.5 10.5815 12.1313 9.92515 11.4749C9.26877 10.8185 8.90002 9.92826 8.90002 9C8.90002 8.07174 9.26877 7.1815 9.92515 6.52513C10.5815 5.86875 11.4718 5.5 12.4 5.5ZM5.40002 8C5.96002 8 6.48002 8.15 6.93002 8.42C6.78002 9.85 7.20002 11.27 8.06002 12.38C7.56002 13.34 6.56002 14 5.40002 14C4.60437 14 3.84131 13.6839 3.2787 13.1213C2.71609 12.5587 2.40002 11.7956 2.40002 11C2.40002 10.2044 2.71609 9.44129 3.2787 8.87868C3.84131 8.31607 4.60437 8 5.40002 8ZM19.4 8C20.1957 8 20.9587 8.31607 21.5213 8.87868C22.084 9.44129 22.4 10.2044 22.4 11C22.4 11.7956 22.084 12.5587 21.5213 13.1213C20.9587 13.6839 20.1957 14 19.4 14C18.24 14 17.24 13.34 16.74 12.38C17.6119 11.2544 18.0166 9.8362 17.87 8.42C18.32 8.15 18.84 8 19.4 8ZM5.90002 18.25C5.90002 16.18 8.81002 14.5 12.4 14.5C15.99 14.5 18.9 16.18 18.9 18.25V20H5.90002V18.25ZM0.400024 20V18.5C0.400024 17.11 2.29002 15.94 4.85002 15.6C4.26002 16.28 3.90002 17.22 3.90002 18.25V20H0.400024ZM24.4 20H20.9V18.25C20.9 17.22 20.54 16.28 19.95 15.6C22.51 15.94 24.4 17.11 24.4 18.5V20Z" fill="#E5A41E"/>
</g>
<defs>
<clipPath id="clip0_105_110">
<rect width="24" height="24" fill="white" transform="translate(0.400024)"/>
</clipPath>
</defs>
</svg>
